<?xml version="1.0" encoding="UTF-8"?>
<svg id="Calque_1" data-name="Calque 1" xmlns="http://www.w3.org/2000/svg" viewBox="0 0 1290 480">
  <defs>
    <style>
      .cls-1 {
        stroke: #cdcccc;
      }

      .cls-1, .cls-2 {
        fill: none;
      }

      .cls-1, .cls-2, .cls-3, .cls-4, .cls-5 {
        stroke-miterlimit: 10;
      }

      .cls-6 {
        fill: #302726;
      }

      .cls-2, .cls-3, .cls-4 {
        stroke: #302726;
      }

      .cls-7 {
        fill: #cdcccc;
      }

      .cls-3, .cls-4, .cls-5 {
        fill: #fff;
      }

      .cls-3, .cls-5 {
        stroke-width: 3px;
      }

      .cls-5 {
        stroke: #1e1e1c;
      }
    </style>
  </defs>
  <line class="cls-1" x1="1242.68" y1="318.21" x2="21.71" y2="318.21"/>
  <line class="cls-1" x1="1242.68" y1="352.96" x2="21.71" y2="352.96"/>
  <line class="cls-1" x1="1242.68" y1="248.69" x2="21.71" y2="248.69"/>
  <line class="cls-1" x1="1242.68" y1="283.45" x2="21.71" y2="283.45"/>
  <line class="cls-1" x1="1242.68" y1="387.72" x2="21.71" y2="387.72"/>
  <line class="cls-1" x1="1242.68" y1="179.18" x2="21.71" y2="179.18"/>
  <line class="cls-1" x1="1242.68" y1="213.94" x2="21.71" y2="213.94"/>
  <line class="cls-1" x1="1242.68" y1="109.67" x2="21.71" y2="109.67"/>
  <line class="cls-1" x1="1242.68" y1="144.43" x2="21.71" y2="144.43"/>
  <line class="cls-1" x1="1242.68" y1="74.92" x2="21.71" y2="74.92"/>
  <line class="cls-1" x1="1242.68" y1="40.16" x2="21.71" y2="40.16"/>
  <path class="cls-7" d="M1250.46,388.04c-.96,0-1.71-.39-2.24-1.17s-.79-1.88-.79-3.3,.27-2.52,.8-3.31,1.28-1.18,2.23-1.18,1.7,.39,2.24,1.18,.8,1.89,.8,3.31-.26,2.52-.79,3.3-1.28,1.17-2.24,1.17Zm0-.93c.65,0,1.15-.31,1.5-.93s.53-1.5,.53-2.62-.18-2-.53-2.62-.85-.94-1.5-.94-1.15,.31-1.5,.94-.53,1.5-.53,2.62,.18,1.99,.53,2.62,.85,.93,1.5,.93Z"/>
  <g>
    <path class="cls-7" d="M1247.54,353.17v-.76l2.88-3.16c.34-.37,.61-.69,.83-.96s.38-.53,.49-.77,.16-.5,.16-.76c0-.46-.16-.83-.48-1.1s-.71-.4-1.19-.4c-.51,0-.91,.15-1.21,.45s-.45,.7-.45,1.2h-1.01c0-.51,.12-.96,.35-1.35s.56-.69,.97-.91,.87-.33,1.37-.33,.96,.11,1.36,.33,.7,.51,.93,.87,.34,.77,.34,1.23c0,.32-.06,.63-.17,.93s-.31,.64-.6,1.02-.67,.83-1.17,1.37l-1.96,2.1v.07h4.05v.94h-5.51Z"/>
    <path class="cls-7" d="M1257.09,353.29c-.96,0-1.71-.39-2.24-1.17s-.79-1.88-.79-3.3,.27-2.52,.8-3.31,1.28-1.18,2.23-1.18,1.7,.39,2.24,1.18,.8,1.89,.8,3.31-.26,2.52-.79,3.3-1.28,1.17-2.24,1.17Zm0-.93c.65,0,1.15-.31,1.5-.93s.53-1.5,.53-2.62-.18-2-.53-2.62-.85-.94-1.5-.94-1.15,.31-1.5,.94-.53,1.5-.53,2.62,.18,1.99,.53,2.62,.85,.93,1.5,.93Z"/>
    <path class="cls-7" d="M1264.03,353.29c-.96,0-1.71-.39-2.24-1.17s-.79-1.88-.79-3.3,.27-2.52,.8-3.31,1.28-1.18,2.23-1.18,1.7,.39,2.24,1.18,.8,1.89,.8,3.31-.26,2.52-.79,3.3-1.28,1.17-2.24,1.17Zm0-.93c.65,0,1.15-.31,1.5-.93s.53-1.5,.53-2.62-.18-2-.53-2.62-.85-.94-1.5-.94-1.15,.31-1.5,.94-.53,1.5-.53,2.62,.18,1.99,.53,2.62,.85,.93,1.5,.93Z"/>
  </g>
  <g>
    <path class="cls-7" d="M1247.55,316.62v-.87l3.83-6.07h1.28v6h1.2v.94h-1.2v1.79h-1.01v-1.79h-4.1Zm1.14-.94h2.96v-4.65h-.07l-2.89,4.58v.07Z"/>
    <path class="cls-7" d="M1257.73,318.53c-.96,0-1.71-.39-2.24-1.17s-.79-1.88-.79-3.3,.27-2.52,.8-3.31,1.28-1.18,2.23-1.18,1.7,.39,2.24,1.18,.8,1.89,.8,3.31-.26,2.52-.79,3.3-1.28,1.17-2.24,1.17Zm0-.93c.65,0,1.15-.31,1.5-.93s.53-1.5,.53-2.62-.18-2-.53-2.62-.85-.94-1.5-.94-1.15,.31-1.5,.94-.53,1.5-.53,2.62,.18,1.99,.53,2.62,.85,.93,1.5,.93Z"/>
    <path class="cls-7" d="M1264.67,318.53c-.96,0-1.71-.39-2.24-1.17s-.79-1.88-.79-3.3,.27-2.52,.8-3.31,1.28-1.18,2.23-1.18,1.7,.39,2.24,1.18,.8,1.89,.8,3.31-.26,2.52-.79,3.3-1.28,1.17-2.24,1.17Zm0-.93c.65,0,1.15-.31,1.5-.93s.53-1.5,.53-2.62-.18-2-.53-2.62-.85-.94-1.5-.94-1.15,.31-1.5,.94-.53,1.5-.53,2.62,.18,1.99,.53,2.62,.85,.93,1.5,.93Z"/>
  </g>
  <g>
    <path class="cls-7" d="M1250.47,283.78c-.36,0-.71-.07-1.07-.2s-.69-.35-.98-.66-.53-.73-.71-1.27-.27-1.21-.27-2.01c0-1.54,.28-2.73,.85-3.57s1.34-1.26,2.32-1.26c.49,0,.92,.1,1.3,.29s.69,.47,.93,.81,.4,.74,.47,1.19h-1.03c-.1-.39-.29-.71-.57-.97s-.65-.39-1.11-.39c-.68,0-1.21,.29-1.6,.88s-.58,1.42-.58,2.48h.07c.24-.36,.54-.65,.91-.85s.78-.31,1.23-.31c.5,0,.96,.12,1.37,.37s.75,.59,1,1.03,.38,.93,.38,1.5-.12,1.03-.36,1.47-.58,.8-1.02,1.06-.95,.4-1.54,.4Zm0-.94c.36,0,.68-.09,.97-.27s.51-.42,.68-.72,.25-.64,.25-1-.08-.69-.24-.99-.38-.53-.66-.71-.6-.26-.96-.26-.68,.09-.98,.28-.52,.42-.69,.72-.25,.62-.25,.97,.08,.67,.25,.98,.39,.55,.67,.73,.61,.28,.97,.28Z"/>
    <path class="cls-7" d="M1257.29,283.78c-.96,0-1.71-.39-2.24-1.17s-.79-1.88-.79-3.3,.27-2.52,.8-3.31,1.28-1.18,2.23-1.18,1.7,.39,2.24,1.18,.8,1.89,.8,3.31-.26,2.52-.79,3.3-1.28,1.17-2.24,1.17Zm0-.93c.65,0,1.15-.31,1.5-.93s.53-1.5,.53-2.62-.18-2-.53-2.62-.85-.94-1.5-.94-1.15,.31-1.5,.94-.53,1.5-.53,2.62,.18,1.99,.53,2.62,.85,.93,1.5,.93Z"/>
    <path class="cls-7" d="M1264.23,283.78c-.96,0-1.71-.39-2.24-1.17s-.79-1.88-.79-3.3,.27-2.52,.8-3.31,1.28-1.18,2.23-1.18,1.7,.39,2.24,1.18,.8,1.89,.8,3.31-.26,2.52-.79,3.3-1.28,1.17-2.24,1.17Zm0-.93c.65,0,1.15-.31,1.5-.93s.53-1.5,.53-2.62-.18-2-.53-2.62-.85-.94-1.5-.94-1.15,.31-1.5,.94-.53,1.5-.53,2.62,.18,1.99,.53,2.62,.85,.93,1.5,.93Z"/>
  </g>
  <g>
    <path class="cls-7" d="M1250.38,249.02c-.59,0-1.1-.1-1.55-.31s-.79-.5-1.04-.86-.38-.79-.38-1.26c0-.37,.07-.71,.22-1.02s.35-.58,.6-.79,.54-.35,.86-.4v-.05c-.42-.11-.75-.35-1-.71s-.37-.78-.37-1.24,.11-.84,.34-1.19,.54-.62,.94-.83,.86-.3,1.37-.3,.96,.1,1.35,.3,.71,.48,.94,.83,.34,.75,.34,1.19-.12,.87-.38,1.24-.58,.6-.98,.71v.05c.31,.06,.6,.19,.85,.4s.46,.47,.61,.79,.23,.66,.23,1.02c0,.47-.13,.89-.38,1.26s-.6,.66-1.05,.86-.96,.31-1.54,.31Zm0-.94c.59,0,1.06-.14,1.4-.42s.52-.66,.52-1.12c0-.33-.08-.62-.25-.87s-.4-.45-.69-.6-.62-.22-.98-.22-.71,.07-1,.22-.52,.34-.69,.6-.25,.54-.25,.87c0,.47,.17,.84,.52,1.12s.82,.42,1.42,.42Zm0-4.14c.46,0,.85-.14,1.16-.41s.46-.64,.46-1.09-.15-.8-.45-1.07-.69-.4-1.17-.4-.89,.13-1.18,.4-.45,.62-.45,1.07,.15,.81,.45,1.09,.69,.41,1.17,.41Z"/>
    <path class="cls-7" d="M1257.25,249.02c-.96,0-1.71-.39-2.24-1.17s-.79-1.88-.79-3.3,.27-2.52,.8-3.31,1.28-1.18,2.23-1.18,1.7,.39,2.24,1.18,.8,1.89,.8,3.31-.26,2.52-.79,3.3-1.28,1.17-2.24,1.17Zm0-.93c.65,0,1.15-.31,1.5-.93s.53-1.5,.53-2.62-.18-2-.53-2.62-.85-.94-1.5-.94-1.15,.31-1.5,.94-.53,1.5-.53,2.62,.18,1.99,.53,2.62,.85,.93,1.5,.93Z"/>
    <path class="cls-7" d="M1264.18,249.02c-.96,0-1.71-.39-2.24-1.17s-.79-1.88-.79-3.3,.27-2.52,.8-3.31,1.28-1.18,2.23-1.18,1.7,.39,2.24,1.18,.8,1.89,.8,3.31-.26,2.52-.79,3.3-1.28,1.17-2.24,1.17Zm0-.93c.65,0,1.15-.31,1.5-.93s.53-1.5,.53-2.62-.18-2-.53-2.62-.85-.94-1.5-.94-1.15,.31-1.5,.94-.53,1.5-.53,2.62,.18,1.99,.53,2.62,.85,.93,1.5,.93Z"/>
  </g>
  <g>
    <path class="cls-7" d="M1250.01,205.42v8.73h-1.03v-7.62h-.06l-2.12,1.42v-1.08l2.18-1.45h1.03Z"/>
    <path class="cls-7" d="M1254.26,214.27c-.96,0-1.71-.39-2.24-1.17s-.79-1.88-.79-3.3,.27-2.52,.8-3.31,1.28-1.18,2.23-1.18,1.7,.39,2.24,1.18,.8,1.89,.8,3.31-.26,2.52-.79,3.3-1.28,1.17-2.24,1.17Zm0-.93c.65,0,1.15-.31,1.5-.93s.53-1.5,.53-2.62-.18-2-.53-2.62-.85-.94-1.5-.94-1.15,.31-1.5,.94-.53,1.5-.53,2.62,.18,1.99,.53,2.62,.85,.93,1.5,.93Z"/>
    <path class="cls-7" d="M1261.19,214.27c-.96,0-1.71-.39-2.24-1.17s-.79-1.88-.79-3.3,.27-2.52,.8-3.31,1.28-1.18,2.23-1.18,1.7,.39,2.24,1.18,.8,1.89,.8,3.31-.26,2.52-.79,3.3-1.28,1.17-2.24,1.17Zm0-.93c.65,0,1.15-.31,1.5-.93s.53-1.5,.53-2.62-.18-2-.53-2.62-.85-.94-1.5-.94-1.15,.31-1.5,.94-.53,1.5-.53,2.62,.18,1.99,.53,2.62,.85,.93,1.5,.93Z"/>
    <path class="cls-7" d="M1268.13,214.27c-.96,0-1.71-.39-2.24-1.17s-.79-1.88-.79-3.3,.27-2.52,.8-3.31,1.28-1.18,2.23-1.18,1.7,.39,2.24,1.18,.8,1.89,.8,3.31-.26,2.52-.79,3.3-1.28,1.17-2.24,1.17Zm0-.93c.65,0,1.15-.31,1.5-.93s.53-1.5,.53-2.62-.18-2-.53-2.62-.85-.94-1.5-.94-1.15,.31-1.5,.94-.53,1.5-.53,2.62,.18,1.99,.53,2.62,.85,.93,1.5,.93Z"/>
  </g>
  <g>
    <path class="cls-7" d="M1250.01,170.66v8.73h-1.03v-7.62h-.06l-2.12,1.42v-1.08l2.18-1.45h1.03Z"/>
    <path class="cls-7" d="M1251.41,179.39v-.76l2.88-3.16c.34-.37,.61-.69,.83-.96s.38-.53,.49-.77,.16-.5,.16-.76c0-.46-.16-.83-.48-1.1s-.71-.4-1.19-.4c-.51,0-.91,.15-1.21,.45s-.45,.7-.45,1.2h-1.01c0-.51,.12-.96,.35-1.35s.56-.69,.97-.91,.87-.33,1.37-.33,.96,.11,1.36,.33,.7,.51,.93,.87,.34,.77,.34,1.23c0,.32-.06,.63-.17,.93s-.31,.64-.6,1.02-.67,.83-1.17,1.37l-1.96,2.1v.07h4.05v.94h-5.51Z"/>
    <path class="cls-7" d="M1260.96,179.51c-.96,0-1.71-.39-2.24-1.17s-.79-1.88-.79-3.3,.27-2.52,.8-3.31,1.28-1.18,2.23-1.18,1.7,.39,2.24,1.18,.8,1.89,.8,3.31-.26,2.52-.79,3.3-1.28,1.17-2.24,1.17Zm0-.93c.65,0,1.15-.31,1.5-.93s.53-1.5,.53-2.62-.18-2-.53-2.62-.85-.94-1.5-.94-1.15,.31-1.5,.94-.53,1.5-.53,2.62,.18,1.99,.53,2.62,.85,.93,1.5,.93Z"/>
    <path class="cls-7" d="M1267.9,179.51c-.96,0-1.71-.39-2.24-1.17s-.79-1.88-.79-3.3,.27-2.52,.8-3.31,1.28-1.18,2.23-1.18,1.7,.39,2.24,1.18,.8,1.89,.8,3.31-.26,2.52-.79,3.3-1.28,1.17-2.24,1.17Zm0-.93c.65,0,1.15-.31,1.5-.93s.53-1.5,.53-2.62-.18-2-.53-2.62-.85-.94-1.5-.94-1.15,.31-1.5,.94-.53,1.5-.53,2.62,.18,1.99,.53,2.62,.85,.93,1.5,.93Z"/>
  </g>
  <g>
    <path class="cls-7" d="M1250.01,135.91v8.73h-1.03v-7.62h-.06l-2.12,1.42v-1.08l2.18-1.45h1.03Z"/>
    <path class="cls-7" d="M1251.21,142.84v-.87l3.83-6.07h1.28v6h1.2v.94h-1.2v1.79h-1.01v-1.79h-4.1Zm1.14-.94h2.96v-4.65h-.07l-2.89,4.58v.07Z"/>
    <path class="cls-7" d="M1261.39,144.75c-.96,0-1.71-.39-2.24-1.17s-.79-1.88-.79-3.3,.27-2.52,.8-3.31,1.28-1.18,2.23-1.18,1.7,.39,2.24,1.18,.8,1.89,.8,3.31-.26,2.52-.79,3.3-1.28,1.17-2.24,1.17Zm0-.93c.65,0,1.15-.31,1.5-.93s.53-1.5,.53-2.62-.18-2-.53-2.62-.85-.94-1.5-.94-1.15,.31-1.5,.94-.53,1.5-.53,2.62,.18,1.99,.53,2.62,.85,.93,1.5,.93Z"/>
    <path class="cls-7" d="M1268.33,144.75c-.96,0-1.71-.39-2.24-1.17s-.79-1.88-.79-3.3,.27-2.52,.8-3.31,1.28-1.18,2.23-1.18,1.7,.39,2.24,1.18,.8,1.89,.8,3.31-.26,2.52-.79,3.3-1.28,1.17-2.24,1.17Zm0-.93c.65,0,1.15-.31,1.5-.93s.53-1.5,.53-2.62-.18-2-.53-2.62-.85-.94-1.5-.94-1.15,.31-1.5,.94-.53,1.5-.53,2.62,.18,1.99,.53,2.62,.85,.93,1.5,.93Z"/>
  </g>
  <g>
    <path class="cls-7" d="M1250.01,101.15v8.73h-1.03v-7.62h-.06l-2.12,1.42v-1.08l2.18-1.45h1.03Z"/>
    <path class="cls-7" d="M1254.26,110c-.36,0-.71-.07-1.07-.2s-.69-.35-.98-.66-.53-.73-.71-1.27-.27-1.21-.27-2.01c0-1.54,.28-2.73,.85-3.57s1.34-1.26,2.32-1.26c.49,0,.92,.1,1.3,.29s.69,.47,.93,.81,.4,.74,.47,1.19h-1.03c-.1-.39-.29-.71-.57-.97s-.65-.39-1.11-.39c-.68,0-1.21,.29-1.6,.88s-.58,1.42-.58,2.48h.07c.24-.36,.54-.65,.91-.85s.78-.31,1.23-.31c.5,0,.96,.12,1.37,.37s.75,.59,1,1.03,.38,.93,.38,1.5-.12,1.03-.36,1.47-.58,.8-1.02,1.06-.95,.4-1.54,.4Zm0-.94c.36,0,.68-.09,.97-.27s.51-.42,.68-.72,.25-.64,.25-1-.08-.69-.24-.99-.38-.53-.66-.71-.6-.26-.96-.26-.68,.09-.98,.28-.52,.42-.69,.72-.25,.62-.25,.97,.08,.67,.25,.98,.39,.55,.67,.73,.61,.28,.97,.28Z"/>
    <path class="cls-7" d="M1261.08,110c-.96,0-1.71-.39-2.24-1.17s-.79-1.88-.79-3.3,.27-2.52,.8-3.31,1.28-1.18,2.23-1.18,1.7,.39,2.24,1.18,.8,1.89,.8,3.31-.26,2.52-.79,3.3-1.28,1.17-2.24,1.17Zm0-.93c.65,0,1.15-.31,1.5-.93s.53-1.5,.53-2.62-.18-2-.53-2.62-.85-.94-1.5-.94-1.15,.31-1.5,.94-.53,1.5-.53,2.62,.18,1.99,.53,2.62,.85,.93,1.5,.93Z"/>
    <path class="cls-7" d="M1268.01,110c-.96,0-1.71-.39-2.24-1.17s-.79-1.88-.79-3.3,.27-2.52,.8-3.31,1.28-1.18,2.23-1.18,1.7,.39,2.24,1.18,.8,1.89,.8,3.31-.26,2.52-.79,3.3-1.28,1.17-2.24,1.17Zm0-.93c.65,0,1.15-.31,1.5-.93s.53-1.5,.53-2.62-.18-2-.53-2.62-.85-.94-1.5-.94-1.15,.31-1.5,.94-.53,1.5-.53,2.62,.18,1.99,.53,2.62,.85,.93,1.5,.93Z"/>
  </g>
  <g>
    <path class="cls-7" d="M1250.01,66.4v8.73h-1.03v-7.62h-.06l-2.12,1.42v-1.08l2.18-1.45h1.03Z"/>
    <path class="cls-7" d="M1254.19,75.24c-.59,0-1.1-.1-1.55-.31s-.79-.5-1.04-.86-.38-.79-.38-1.26c0-.37,.07-.71,.22-1.02s.35-.58,.6-.79,.54-.35,.86-.4v-.05c-.42-.11-.75-.35-1-.71s-.37-.78-.37-1.24,.11-.84,.34-1.19,.54-.62,.94-.83,.86-.3,1.37-.3,.96,.1,1.35,.3,.71,.48,.94,.83,.34,.75,.34,1.19-.12,.87-.38,1.24-.58,.6-.98,.71v.05c.31,.06,.6,.19,.85,.4s.46,.47,.61,.79,.23,.66,.23,1.02c0,.47-.13,.89-.38,1.26s-.6,.66-1.05,.86-.96,.31-1.54,.31Zm0-.94c.59,0,1.06-.14,1.4-.42s.52-.66,.52-1.12c0-.33-.08-.62-.25-.87s-.4-.45-.69-.6-.62-.22-.98-.22-.71,.07-1,.22-.52,.34-.69,.6-.25,.54-.25,.87c0,.47,.17,.84,.52,1.12s.82,.42,1.42,.42Zm0-4.14c.46,0,.85-.14,1.16-.41s.46-.64,.46-1.09-.15-.8-.45-1.07-.69-.4-1.17-.4-.89,.13-1.18,.4-.45,.62-.45,1.07,.15,.81,.45,1.09,.69,.41,1.17,.41Z"/>
    <path class="cls-7" d="M1261.05,75.24c-.96,0-1.71-.39-2.24-1.17s-.79-1.88-.79-3.3,.27-2.52,.8-3.31,1.28-1.18,2.23-1.18,1.7,.39,2.24,1.18,.8,1.89,.8,3.31-.26,2.52-.79,3.3-1.28,1.17-2.24,1.17Zm0-.93c.65,0,1.15-.31,1.5-.93s.53-1.5,.53-2.62-.18-2-.53-2.62-.85-.94-1.5-.94-1.15,.31-1.5,.94-.53,1.5-.53,2.62,.18,1.99,.53,2.62,.85,.93,1.5,.93Z"/>
    <path class="cls-7" d="M1267.99,75.24c-.96,0-1.71-.39-2.24-1.17s-.79-1.88-.79-3.3,.27-2.52,.8-3.31,1.28-1.18,2.23-1.18,1.7,.39,2.24,1.18,.8,1.89,.8,3.31-.26,2.52-.79,3.3-1.28,1.17-2.24,1.17Zm0-.93c.65,0,1.15-.31,1.5-.93s.53-1.5,.53-2.62-.18-2-.53-2.62-.85-.94-1.5-.94-1.15,.31-1.5,.94-.53,1.5-.53,2.62,.18,1.99,.53,2.62,.85,.93,1.5,.93Z"/>
  </g>
  <g>
    <path class="cls-7" d="M1247.54,40.37v-.76l2.88-3.16c.34-.37,.61-.69,.83-.96s.38-.53,.49-.77,.16-.5,.16-.76c0-.46-.16-.83-.48-1.1s-.71-.4-1.19-.4c-.51,0-.91,.15-1.21,.45s-.45,.7-.45,1.2h-1.01c0-.51,.12-.96,.35-1.35s.56-.69,.97-.91,.87-.33,1.37-.33,.96,.11,1.36,.33,.7,.51,.93,.87,.34,.77,.34,1.23c0,.32-.06,.63-.17,.93s-.31,.64-.6,1.02-.67,.83-1.17,1.37l-1.96,2.1v.07h4.05v.94h-5.51Z"/>
    <path class="cls-7" d="M1257.09,40.49c-.96,0-1.71-.39-2.24-1.17s-.79-1.88-.79-3.3,.27-2.52,.8-3.31,1.28-1.18,2.23-1.18,1.7,.39,2.24,1.18,.8,1.89,.8,3.31-.26,2.52-.79,3.3-1.28,1.17-2.24,1.17Zm0-.93c.65,0,1.15-.31,1.5-.93s.53-1.5,.53-2.62-.18-2-.53-2.62-.85-.94-1.5-.94-1.15,.31-1.5,.94-.53,1.5-.53,2.62,.18,1.99,.53,2.62,.85,.93,1.5,.93Z"/>
    <path class="cls-7" d="M1264.03,40.49c-.96,0-1.71-.39-2.24-1.17s-.79-1.88-.79-3.3,.27-2.52,.8-3.31,1.28-1.18,2.23-1.18,1.7,.39,2.24,1.18,.8,1.89,.8,3.31-.26,2.52-.79,3.3-1.28,1.17-2.24,1.17Zm0-.93c.65,0,1.15-.31,1.5-.93s.53-1.5,.53-2.62-.18-2-.53-2.62-.85-.94-1.5-.94-1.15,.31-1.5,.94-.53,1.5-.53,2.62,.18,1.99,.53,2.62,.85,.93,1.5,.93Z"/>
    <path class="cls-7" d="M1270.97,40.49c-.96,0-1.71-.39-2.24-1.17s-.79-1.88-.79-3.3,.27-2.52,.8-3.31,1.28-1.18,2.23-1.18,1.7,.39,2.24,1.18,.8,1.89,.8,3.31-.26,2.52-.79,3.3-1.28,1.17-2.24,1.17Zm0-.93c.65,0,1.15-.31,1.5-.93s.53-1.5,.53-2.62-.18-2-.53-2.62-.85-.94-1.5-.94-1.15,.31-1.5,.94-.53,1.5-.53,2.62,.18,1.99,.53,2.62,.85,.93,1.5,.93Z"/>
  </g>
  <g>
    <g>
      <path class="cls-3" d="M181.66,359.59s-.37-.7-3.06-.9v3.19h-.06s-.24-51.35-.24-51.35v-30.4h.17s.02,3.03,.02,3.03l1.51-.2s1.73-.42,2.17-1.16,.64-1.66,.64-1.66v-5.63s-.1-.2-1-.35v-5.12c-.02-.91-3.41-.8-3.41-.8l.04,5.6c-.05,0-.1,0-.15-.01v-10.56l-1.68-1.09-103.47-2.96-11.27,8.7v105.34l11.46,10.08,103.07-3.36,1.88-1.28v-4.24h.3s-.02-5.15-.02-5.15h.1s.04,4.86,.04,4.86l2.58-.31s.65-.13,.65-.52v-4.44c.27-.08,.96-.36,.96-1.27v-4.98l-1.26-3.06Z"/>
      <g>
        <polygon class="cls-4" points="73.36 383.35 176.43 379.99 178.31 378.71 178.31 263.29 176.63 262.2 73.16 259.23 61.9 267.93 61.9 373.28 73.36 383.35"/>
        <line class="cls-4" x1="73.16" y1="259.23" x2="73.36" y2="383.35"/>
        <line class="cls-4" x1="176.63" y1="262.2" x2="176.43" y2="379.99"/>
        <polygon class="cls-4" points="178.61 374.46 79.67 377.54 80 265.16 178.11 267.93 178.61 374.46"/>
        <g>
          <path class="cls-4" d="M178.69,369.19l.05,4.98,2.58-.31s.65-.13,.65-.52v-5.1l-3.28,.74v.2Z"/>
          <path class="cls-4" d="M178.61,358.7v3.19l-17.86,2.13v6.34h9.1l12.01-1.43s1.07-.17,1.07-1.3v-4.98l-1.26-3.06s-.37-.7-3.06-.9Z"/>
          <polyline class="cls-2" points="160.75 364.02 169.64 364.38 182.92 362.65"/>
          <line class="cls-2" x1="169.84" y1="370.36" x2="169.64" y2="364.38"/>
        </g>
        <g>
          <path class="cls-4" d="M178.42,268.26s3.39-.11,3.41,.8v7.47l-3.35-.09-.06-8.17Z"/>
          <path class="cls-4" d="M178.48,280.16l.02,3.01,1.51-.2s1.73-.42,2.17-1.16,.64-1.66,.64-1.66v-5.63s-.15-.32-1.85-.44-9.98-.96-9.98-.96c0,0-1.85-.05-3.8,0s-6.25,.17-6.25,.17v5.66l8.62,.59,8.92,.62Z"/>
          <line class="cls-4" x1="169.94" y1="273.1" x2="169.94" y2="278.83"/>
          <polyline class="cls-2" points="160.94 278.95 169.94 278.83 182.83 280.16"/>
        </g>
        <ellipse class="cls-4" cx="134.66" cy="330.4" rx="3.89" ry="4.38"/>
        <g>
          <path class="cls-4" d="M105.59,279.01l-5.34,.8s-1.95,1.35-.44,3.58,5.78-4.37,5.78-4.37Z"/>
          <g>
            <path class="cls-4" d="M85.27,318.75c-.82,0-1.48-.89-1.48-1.98s.66-1.98,1.48-1.98h2.59v3.96h-2.59Z"/>
            <path class="cls-4" d="M86.85,312.95s-.07,4.51,.19,5.98c.19,1.08,.83,3.09,2.85,3.09,1.46,0,1.46-1.79,1.53-2.52,.16-1.61-.05-6.55-.05-6.55h-4.52Z"/>
          </g>
          <path class="cls-4" d="M100,282.79l4.89-4.42s1.66-1.21,3.73-.44-.89,3.7-1.8,4.5c-1.12,.97-4.64,3.68-4.64,3.68l-2.17-3.31Z"/>
          <path class="cls-4" d="M104.03,285.03c-.67-1.28-1.66-2.77-3.51-3.31-12.67,11.95-13.33,14.03-13.9,31.82,1.64-.07,3.4,.07,5.04,0-.06-15.48,1.23-18.41,12.37-28.51Z"/>
        </g>
        <g>
          <path class="cls-4" d="M121.25,318.55l-18.46,.3c-.9,0-1.64,1.03-1.64,2.3s.73,2.3,1.64,2.3l18.72-.26c2.37-3.08-.26-4.63-.26-4.63Z"/>
          <path class="cls-4" d="M104.87,318.82s.56,2.22,0,4.63"/>
          <path class="cls-4" d="M119.4,318.58s1.41,1.56,.23,4.63"/>
        </g>
        <polygon class="cls-4" points="150.64 368.64 88.88 370.24 88.88 368.98 150.64 367.39 150.64 368.64"/>
        <polygon class="cls-4" points="160.9 322.48 159.87 322.48 159.97 288.98 160.8 288.98 160.9 322.48"/>
        <polygon class="cls-4" points="161.15 334.28 159.36 335.71 159.49 331.43 161.15 330.4 161.15 334.28"/>
        <polygon class="cls-4" points="161.97 350.86 158.62 353.15 158.8 345.44 161.99 343.2 161.97 350.86"/>
        <g>
          <ellipse class="cls-4" cx="136.9" cy="312.18" rx="6.13" ry="6.45"/>
          <ellipse class="cls-4" cx="137.59" cy="312.18" rx="3.89" ry="4.38"/>
        </g>
      </g>
    </g>
    <g>
      <path class="cls-6" d="M89.29,415.21v11.64h-1.41v-11.64h1.41Z"/>
      <path class="cls-6" d="M92.51,421.6v5.25h-1.33v-8.73h1.28v1.38h.12c.2-.45,.51-.81,.93-1.08,.42-.27,.96-.41,1.62-.41,.88,0,1.59,.27,2.14,.81,.54,.54,.82,1.37,.82,2.48v5.55h-1.33v-5.45c0-.68-.18-1.22-.54-1.61-.36-.39-.85-.58-1.47-.58s-1.18,.21-1.61,.62c-.42,.42-.64,1.01-.64,1.77Z"/>
      <path class="cls-6" d="M106.62,418.12l-3.22,8.73h-1.38l-3.22-8.73h1.45l2.41,6.97h.09l2.41-6.97h1.45Z"/>
      <path class="cls-6" d="M108.33,416.67c-.26,0-.48-.09-.67-.27-.19-.18-.28-.39-.28-.64s.09-.46,.28-.64c.19-.18,.41-.27,.67-.27s.48,.09,.67,.27c.19,.18,.28,.39,.28,.64s-.09,.46-.28,.64c-.19,.18-.41,.27-.67,.27Zm-.67,10.19v-8.73h1.33v8.73h-1.33Z"/>
      <path class="cls-6" d="M110.7,426.85v-11.64h1.33v6.8h.17l3.81-3.89h1.66l-3.69,3.74,3.97,4.99h-1.72l-3.27-4.13-.94,.88v3.26h-1.33Z"/>
      <path class="cls-6" d="M122.44,418.12v1.14h-1.88v5.09c0,.45,.09,.79,.28,1s.48,.32,.89,.32c.19,0,.38-.02,.59-.06l.28,1.2c-.28,.1-.61,.16-1,.16-.7,0-1.28-.21-1.71-.62-.44-.42-.66-.96-.66-1.62v-5.45h-1.31v-1.14h1.31v-2.08h1.33v2.08h1.88Z"/>
      <path class="cls-6" d="M129.22,423.29v-5.17h1.33v8.73h-1.33v-1.48h-.09c-.21,.44-.53,.82-.96,1.13s-.98,.47-1.64,.46c-.82,0-1.49-.26-2.02-.81-.53-.54-.79-1.37-.79-2.49v-5.55h1.33v5.47c0,.63,.18,1.14,.54,1.52,.36,.38,.82,.57,1.38,.56,.33,0,.67-.08,1.02-.25,.35-.17,.64-.43,.88-.78,.24-.35,.36-.8,.36-1.34Z"/>
      <path class="cls-6" d="M138.44,420.09l-1.2,.33c-.12-.3-.31-.58-.59-.85-.28-.27-.71-.4-1.3-.4-.53,0-.97,.12-1.33,.37-.35,.25-.53,.56-.53,.93,0,.33,.12,.6,.36,.8,.24,.2,.62,.36,1.14,.48l1.3,.31c1.54,.37,2.31,1.16,2.31,2.36,0,.5-.14,.95-.43,1.34-.29,.4-.69,.71-1.2,.94-.51,.23-1.1,.34-1.78,.34-.89,0-1.63-.2-2.21-.59-.58-.39-.95-.96-1.11-1.7l1.27-.31c.24,.94,.92,1.41,2.03,1.41,.62,0,1.12-.13,1.49-.4,.37-.27,.56-.59,.56-.96,0-.61-.43-1.03-1.3-1.23l-1.45-.34c-.8-.19-1.39-.49-1.77-.88-.38-.4-.56-.89-.56-1.49,0-.49,.14-.93,.42-1.31,.28-.38,.66-.68,1.14-.89,.48-.22,1.03-.32,1.64-.32,.87,0,1.55,.19,2.04,.57s.84,.88,1.05,1.5Z"/>
      <path class="cls-6" d="M147.42,415.21v11.64h-1.38v-10.16h-.08l-2.83,1.89v-1.44l2.91-1.94h1.38Z"/>
      <path class="cls-6" d="M149.01,424.46v-1.16l5.11-8.09h1.7v8h1.59v1.25h-1.59v2.39h-1.34v-2.39h-5.47Zm1.52-1.25h3.95v-6.2h-.09l-3.86,6.11v.09Z"/>
    </g>
  </g>
  <g>
    <g>
      <path class="cls-5" d="M357.15,359s-.37-.7-3.06-.9v3.19h-.02s-1.12-91.72-1.12-91.72l.04-10.14v1.4s1.52-.2,1.52-.2c0,0,1.73-.42,2.17-1.16s.64-1.66,.64-1.66v-5.63s-.1-.2-1-.35v-5.12c-.02-.8-2.68-.81-3.28-.8l.02-4.77-2.05-1.49-104.42-3.35-14.23,11.76v121.06l14.63,14.23,104.06-4.1,1.48-1.63v-2.92s1.7-.05,1.7-.05v-1.08s2.56-.31,2.56-.31c0,0,.65-.13,.65-.52v-4.44c.27-.08,.96-.36,.96-1.27v-4.98l-1.26-3.06Zm-2.98,9.72h0s.01,1.27,.01,1.27l-.02-1.27Z"/>
      <g>
        <polygon class="cls-4" points="247 383.35 351.06 379.25 352.54 377.62 353.06 241.15 351.02 239.65 246.6 236.3 232.37 248.06 232.37 369.12 247 383.35"/>
        <line class="cls-4" x1="246.6" y1="236.3" x2="247" y2="383.35"/>
        <line class="cls-4" x1="351.02" y1="239.65" x2="351.06" y2="379.25"/>
        <polygon class="cls-4" points="354.24 374.66 252.88 377.47 252.88 241.83 352.66 245.51 354.24 374.66"/>
        <path class="cls-4" d="M354.17,368.6l.05,4.98,2.58-.31s.65-.13,.65-.52v-5.1l-3.28,.74v.2Z"/>
        <path class="cls-4" d="M354.1,358.1v3.19l-17.86,2.13v6.34h9.1l12.01-1.43s1.07-.17,1.07-1.3v-4.98l-1.26-3.06s-.37-.7-3.06-.9Z"/>
        <polyline class="cls-2" points="336.23 363.43 345.13 363.78 358.41 362.06"/>
        <line class="cls-2" x1="345.33" y1="369.76" x2="345.13" y2="363.78"/>
        <g>
          <path class="cls-4" d="M352.92,245.92s3.39-.11,3.41,.8v7.47l-3.35-.09-.06-8.17Z"/>
          <path class="cls-4" d="M352.98,257.83l.02,3.01,1.51-.2s1.73-.42,2.17-1.16,.64-1.66,.64-1.66v-5.63s-.15-.32-1.85-.44-9.98-.96-9.98-.96c0,0-1.85-.05-3.8,0s-6.25,.17-6.25,.17v5.66l8.62,.59,8.92,.62Z"/>
          <line class="cls-4" x1="344.43" y1="250.76" x2="344.43" y2="256.49"/>
          <polyline class="cls-2" points="335.44 256.62 344.43 256.49 357.33 257.83"/>
        </g>
        <ellipse class="cls-4" cx="309.58" cy="300.89" rx="3.89" ry="4.38"/>
        <g>
          <path class="cls-4" d="M279.81,267.15l-5.34,.8s-1.95,1.35-.44,3.58,5.78-4.37,5.78-4.37Z"/>
          <g>
            <path class="cls-4" d="M259.5,306.89c-.82,0-1.48-.89-1.48-1.98s.66-1.98,1.48-1.98h2.59v3.96h-2.59Z"/>
            <path class="cls-4" d="M261.08,301.09s-.07,4.51,.19,5.98c.19,1.08,.83,3.09,2.85,3.09,1.46,0,1.46-1.79,1.53-2.52,.16-1.61-.05-6.55-.05-6.55h-4.52Z"/>
          </g>
          <path class="cls-4" d="M274.22,270.92l4.89-4.42s1.66-1.21,3.73-.44-.89,3.7-1.8,4.5c-1.12,.97-4.64,3.68-4.64,3.68l-2.17-3.31Z"/>
          <path class="cls-4" d="M278.26,273.17c-.67-1.28-1.66-2.77-3.51-3.31-12.67,11.95-13.33,14.03-13.9,31.82,1.64-.07,3.4,.07,5.04,0-.06-15.48,1.23-18.41,12.37-28.51Z"/>
        </g>
        <g>
          <path class="cls-4" d="M294.1,307.48l-18.46,.3c-.9,0-1.64,1.03-1.64,2.3s.73,2.3,1.64,2.3l18.72-.26c2.37-3.08-.26-4.63-.26-4.63Z"/>
          <path class="cls-4" d="M277.72,307.74s.56,2.22,0,4.63"/>
          <path class="cls-4" d="M292.24,307.51s1.41,1.56,.23,4.63"/>
        </g>
        <polygon class="cls-4" points="324.97 367.82 262.07 369.6 262.07 368.34 324.97 366.56 324.97 367.82"/>
        <polygon class="cls-4" points="335.19 320.75 334.16 320.75 334.36 266.84 335.19 266.84 335.19 320.75"/>
        <polygon class="cls-4" points="335.64 332.89 333.59 334.52 333.74 329.63 335.64 328.45 335.64 332.89"/>
        <polygon class="cls-4" points="336.38 350.09 332.85 352.49 333.04 343.75 336.4 342.01 336.38 350.09"/>
        <g>
          <polygon class="cls-4" points="298.99 256.26 298.99 284.32 321.38 284.32 321.38 256.26 299.69 255.71 298.99 256.26"/>
          <line class="cls-4" x1="299.69" y1="255.71" x2="299.93" y2="284.32"/>
          <path class="cls-2" d="M299.93,276.52s4.15,1.08,6.18-1.39c2.04-2.47,9.11-.35,9.11-.35,0,0,1.5,3,6.15,1.98"/>
          <g>
            <path class="cls-4" d="M301.66,256.9s13.24-.64,17.05,.35c0,0-.3,19.76-7.66,21.25s-9.39-21.59-9.39-21.59Z"/>
            <g>
              <polygon class="cls-4" points="315.56 264.24 305.18 264.24 305.18 258.61 315.52 258.61 315.56 264.24"/>
              <circle class="cls-4" cx="308.39" cy="267.14" r=".6"/>
              <circle class="cls-4" cx="310.79" cy="267.14" r=".6"/>
              <circle class="cls-4" cx="313.03" cy="267.14" r=".6"/>
              <circle class="cls-4" cx="308.39" cy="268.99" r=".6"/>
              <circle class="cls-4" cx="310.79" cy="268.99" r=".6"/>
              <circle class="cls-4" cx="313.03" cy="268.99" r=".6"/>
              <circle class="cls-4" cx="308.39" cy="270.96" r=".6"/>
              <circle class="cls-4" cx="310.79" cy="270.96" r=".6"/>
              <circle class="cls-4" cx="310.79" cy="272.94" r=".6"/>
              <path class="cls-4" d="M313.79,272.94s-.78,.44-1.02,.44-.44-.2-.44-.44,.2-.44,.44-.44,1.02,.44,1.02,.44Z"/>
              <path class="cls-4" d="M309.23,272.94c0,.24-.2,.44-.44,.44s-1.12-.55-1.12-.55c0,0,.88-.32,1.12-.32s.44,.2,.44,.44Z"/>
              <circle class="cls-4" cx="313.03" cy="270.96" r=".6"/>
              <rect class="cls-4" x="306.22" y="264.91" width="1.76" height=".61" rx=".24" ry=".24"/>
              <rect class="cls-4" x="308.61" y="264.91" width="1.76" height=".61" rx=".24" ry=".24"/>
              <rect class="cls-4" x="310.98" y="264.91" width="1.76" height=".61" rx=".24" ry=".24"/>
              <rect class="cls-4" x="313.24" y="264.91" width="1.76" height=".61" rx=".24" ry=".24"/>
            </g>
          </g>
        </g>
      </g>
    </g>
    <g>
      <path class="cls-6" d="M260.78,415.21v11.64h-1.41v-11.64h1.41Z"/>
      <path class="cls-6" d="M264,421.6v5.25h-1.33v-8.73h1.28v1.38h.12c.2-.45,.51-.81,.93-1.08,.42-.27,.96-.41,1.62-.41,.88,0,1.59,.27,2.14,.81,.54,.54,.82,1.37,.82,2.48v5.55h-1.33v-5.45c0-.68-.18-1.22-.54-1.61-.36-.39-.85-.58-1.47-.58s-1.18,.21-1.61,.62c-.43,.42-.64,1.01-.64,1.77Z"/>
      <path class="cls-6" d="M278.11,418.12l-3.22,8.73h-1.38l-3.22-8.73h1.45l2.41,6.97h.09l2.41-6.97h1.45Z"/>
      <path class="cls-6" d="M279.81,416.67c-.26,0-.48-.09-.67-.27-.19-.18-.28-.39-.28-.64s.09-.46,.28-.64c.19-.18,.41-.27,.67-.27s.48,.09,.67,.27c.19,.18,.28,.39,.28,.64s-.09,.46-.28,.64c-.19,.18-.41,.27-.67,.27Zm-.67,10.19v-8.73h1.33v8.73h-1.33Z"/>
      <path class="cls-6" d="M282.19,426.85v-11.64h1.33v6.8h.17l3.81-3.89h1.66l-3.69,3.74,3.97,4.99h-1.72l-3.27-4.13-.94,.88v3.26h-1.33Z"/>
      <path class="cls-6" d="M293.92,418.12v1.14h-1.88v5.09c0,.45,.09,.79,.28,1s.48,.32,.89,.32c.19,0,.38-.02,.59-.06l.28,1.2c-.28,.1-.61,.16-1,.16-.7,0-1.28-.21-1.71-.62-.44-.42-.66-.96-.66-1.62v-5.45h-1.31v-1.14h1.31v-2.08h1.33v2.08h1.88Z"/>
      <path class="cls-6" d="M300.7,423.29v-5.17h1.33v8.73h-1.33v-1.48h-.09c-.21,.44-.53,.82-.96,1.13s-.98,.47-1.64,.46c-.82,0-1.49-.26-2.02-.81-.53-.54-.79-1.37-.79-2.49v-5.55h1.33v5.47c0,.63,.18,1.14,.54,1.52,.36,.38,.82,.57,1.38,.56,.33,0,.67-.08,1.02-.25,.35-.17,.64-.43,.88-.78,.24-.35,.36-.8,.36-1.34Z"/>
      <path class="cls-6" d="M309.92,420.09l-1.2,.33c-.12-.3-.31-.58-.59-.85-.28-.27-.71-.4-1.3-.4-.53,0-.97,.12-1.33,.37-.36,.25-.53,.56-.53,.93,0,.33,.12,.6,.36,.8,.24,.2,.62,.36,1.14,.48l1.3,.31c1.54,.37,2.31,1.16,2.31,2.36,0,.5-.14,.95-.43,1.34-.29,.4-.69,.71-1.2,.94-.51,.23-1.11,.34-1.78,.34-.89,0-1.63-.2-2.21-.59-.58-.39-.95-.96-1.11-1.7l1.27-.31c.24,.94,.92,1.41,2.03,1.41,.62,0,1.12-.13,1.49-.4,.37-.27,.56-.59,.56-.96,0-.61-.43-1.03-1.3-1.23l-1.45-.34c-.8-.19-1.39-.49-1.77-.88-.38-.4-.56-.89-.56-1.49,0-.49,.14-.93,.42-1.31,.28-.38,.66-.68,1.14-.89,.48-.22,1.03-.32,1.64-.32,.87,0,1.55,.19,2.04,.57s.84,.88,1.05,1.5Z"/>
      <path class="cls-6" d="M315.08,426.85v-1.02l3.84-4.22c.45-.49,.82-.92,1.11-1.28,.29-.36,.5-.71,.65-1.03,.14-.32,.21-.66,.21-1.02,0-.62-.21-1.11-.64-1.46-.43-.36-.95-.54-1.58-.54-.68,0-1.21,.2-1.61,.6-.4,.4-.59,.94-.59,1.6h-1.34c0-.68,.16-1.28,.47-1.8,.31-.52,.74-.92,1.29-1.21,.54-.29,1.15-.43,1.83-.43s1.29,.14,1.81,.43c.53,.29,.94,.68,1.24,1.16,.3,.49,.45,1.03,.45,1.64,0,.43-.08,.84-.23,1.25-.15,.4-.42,.86-.8,1.36-.38,.5-.9,1.11-1.57,1.82l-2.61,2.8v.09h5.41v1.25h-7.34Z"/>
      <path class="cls-6" d="M327.81,427.01c-1.29,0-2.28-.52-2.99-1.56-.71-1.04-1.06-2.51-1.06-4.41s.36-3.36,1.07-4.41c.71-1.05,1.71-1.57,2.98-1.57s2.27,.52,2.98,1.57c.71,1.05,1.07,2.52,1.07,4.41s-.35,3.36-1.06,4.41c-.71,1.04-1.7,1.56-2.99,1.56Zm0-1.23c.86,0,1.53-.42,2-1.25,.47-.83,.7-1.99,.7-3.49s-.23-2.67-.7-3.5c-.47-.83-1.14-1.25-2-1.25s-1.53,.42-2,1.25c-.47,.83-.7,2-.7,3.5s.23,2.66,.7,3.49c.47,.83,1.13,1.25,2,1.25Z"/>
    </g>
  </g>
  <g>
    <g>
      <path class="cls-3" d="M533.95,356.41s-.37-.7-3.06-.9v2.61l-1.66-157.77h.06s.02,3.02,.02,3.02l1.51-.2s1.73-.42,2.17-1.16c.44-.74,.64-1.66,.64-1.66v-5.63s-.1-.2-1-.35v-5.12c-.02-.91-3.41-.8-3.41-.8l.04,5.6s-.07,0-.11-.01l-.06-5.58-1.13-.04v-4.32s-105.52-5.49-105.52-5.49l-14.23,14.68-.37,167.83,14.35,22.2,106.38-6.37-.02-4.76,2.46-.13v-1.08s2.56-.31,2.56-.31c0,0,.65-.13,.65-.52v-4.44c.27-.08,.96-.36,.96-1.27v-4.98l-1.26-3.06Z"/>
      <g>
        <polygon class="cls-4" points="422.21 383.34 528.59 376.96 527.96 184.12 422.46 178.63 408.23 193.3 407.86 361.14 422.21 383.34"/>
        <line class="cls-4" x1="422.46" y1="178.63" x2="422.21" y2="383.34"/>
        <polygon class="cls-4" points="531.04 372.07 427.94 377.56 429.33 184.8 529.11 188.48 531.04 372.07"/>
        <path class="cls-4" d="M530.97,366.01l.05,4.98,2.58-.31s.65-.13,.65-.52v-5.1l-3.28,.74v.2Z"/>
        <path class="cls-4" d="M530.89,355.52v3.19l-17.86,2.13v6.34h9.1l12.01-1.43s1.07-.17,1.07-1.3v-4.98l-1.26-3.06s-.37-.7-3.06-.9Z"/>
        <polyline class="cls-2" points="513.03 360.84 521.92 361.2 535.21 359.47"/>
        <line class="cls-2" x1="522.13" y1="367.18" x2="521.92" y2="361.2"/>
        <g>
          <path class="cls-4" d="M529.23,188.47s3.39-.11,3.41,.8v7.47l-3.35-.09-.06-8.17Z"/>
          <path class="cls-4" d="M529.3,200.37l.02,3.01,1.51-.2s1.73-.42,2.17-1.16,.64-1.66,.64-1.66v-5.63s-.15-.32-1.85-.44-9.98-.96-9.98-.96c0,0-1.85-.05-3.8,0s-6.25,.17-6.25,.17v5.66l8.62,.59,8.92,.62Z"/>
          <line class="cls-4" x1="520.75" y1="193.3" x2="520.75" y2="199.03"/>
          <polyline class="cls-2" points="511.76 199.16 520.75 199.03 533.65 200.37"/>
        </g>
        <ellipse class="cls-4" cx="485.78" cy="271.53" rx="3.89" ry="4.38"/>
        <g>
          <path class="cls-4" d="M456.02,237.59l-5.34,.8s-1.95,1.35-.44,3.58c1.5,2.22,5.78-4.37,5.78-4.37Z"/>
          <g>
            <path class="cls-4" d="M435.7,277.32c-.82,0-1.48-.89-1.48-1.98s.66-1.98,1.48-1.98h2.59v3.96h-2.59Z"/>
            <path class="cls-4" d="M437.28,271.53s-.07,4.51,.19,5.98c.19,1.08,.83,3.09,2.85,3.09,1.46,0,1.46-1.79,1.53-2.52,.16-1.61-.05-6.55-.05-6.55h-4.52Z"/>
          </g>
          <path class="cls-4" d="M450.43,241.36l4.89-4.42s1.66-1.21,3.73-.44-.89,3.7-1.8,4.5c-1.12,.97-4.64,3.68-4.64,3.68l-2.17-3.31Z"/>
          <path class="cls-4" d="M454.46,243.61c-.67-1.28-1.66-2.77-3.51-3.31-12.67,11.95-13.33,14.03-13.9,31.82,1.64-.07,3.4,.07,5.04,0-.06-15.48,1.23-18.41,12.37-28.51Z"/>
        </g>
        <g>
          <path class="cls-4" d="M470.3,278.02l-18.46,.3c-.9,0-1.64,1.03-1.64,2.3s.73,2.3,1.64,2.3l18.72-.26c2.37-3.08-.26-4.63-.26-4.63Z"/>
          <path class="cls-4" d="M453.92,278.28s.56,2.22,0,4.63"/>
          <path class="cls-4" d="M468.45,278.05s1.41,1.56,.23,4.63"/>
        </g>
        <polygon class="cls-4" points="501.07 366.37 437.63 369.93 437.63 368.67 501.07 365.11 501.07 366.37"/>
        <polygon class="cls-4" points="512.32 298.84 511.29 298.84 511.25 209.98 512.08 209.98 512.32 298.84"/>
        <polygon class="cls-4" points="512.55 310.68 511.1 311.84 511.05 307.7 512.48 306.85 512.55 310.68"/>
        <polygon class="cls-4" points="513.49 328.31 510.6 330.44 510.49 322.7 513.27 320.66 513.49 328.31"/>
        <polygon class="cls-4" points="514.17 346.92 510.09 350.33 509.83 341.16 513.92 338.46 514.17 346.92"/>
        <g>
          <polygon class="cls-4" points="474.59 226.82 474.59 254.88 496.98 254.88 496.98 226.82 475.28 226.27 474.59 226.82"/>
          <line class="cls-4" x1="475.28" y1="226.27" x2="475.53" y2="254.88"/>
          <path class="cls-2" d="M475.53,247.07s4.15,1.08,6.18-1.39c2.04-2.47,9.11-.35,9.11-.35,0,0,1.5,3,6.15,1.98"/>
          <g>
            <path class="cls-4" d="M477.26,227.46s13.24-.64,17.05,.35c0,0-.3,19.76-7.66,21.25-7.36,1.48-9.39-21.59-9.39-21.59Z"/>
            <g>
              <polygon class="cls-4" points="491.16 234.8 480.78 234.8 480.78 229.16 491.12 229.16 491.16 234.8"/>
              <circle class="cls-4" cx="483.99" cy="237.69" r=".6"/>
              <circle class="cls-4" cx="486.38" cy="237.69" r=".6"/>
              <circle class="cls-4" cx="488.63" cy="237.69" r=".6"/>
              <circle class="cls-4" cx="483.99" cy="239.55" r=".6"/>
              <circle class="cls-4" cx="486.38" cy="239.55" r=".6"/>
              <circle class="cls-4" cx="488.63" cy="239.55" r=".6"/>
              <circle class="cls-4" cx="483.99" cy="241.52" r=".6"/>
              <circle class="cls-4" cx="486.38" cy="241.52" r=".6"/>
              <circle class="cls-4" cx="486.38" cy="243.5" r=".6"/>
              <path class="cls-4" d="M489.39,243.5s-.78,.44-1.02,.44-.44-.2-.44-.44,.2-.44,.44-.44,1.02,.44,1.02,.44Z"/>
              <path class="cls-4" d="M484.83,243.5c0,.24-.2,.44-.44,.44s-1.12-.55-1.12-.55c0,0,.88-.32,1.12-.32s.44,.2,.44,.44Z"/>
              <circle class="cls-4" cx="488.63" cy="241.52" r=".6"/>
              <rect class="cls-4" x="481.82" y="235.46" width="1.76" height=".61" rx=".24" ry=".24"/>
              <rect class="cls-4" x="484.21" y="235.46" width="1.76" height=".61" rx=".24" ry=".24"/>
              <rect class="cls-4" x="486.58" y="235.46" width="1.76" height=".61" rx=".24" ry=".24"/>
              <rect class="cls-4" x="488.84" y="235.46" width="1.76" height=".61" rx=".24" ry=".24"/>
            </g>
          </g>
        </g>
      </g>
    </g>
    <g>
      <path class="cls-6" d="M436.67,415.21v11.64h-1.41v-11.64h1.41Z"/>
      <path class="cls-6" d="M439.89,421.6v5.25h-1.33v-8.73h1.28v1.38h.12c.2-.45,.51-.81,.93-1.08,.42-.27,.96-.41,1.62-.41,.88,0,1.59,.27,2.14,.81,.54,.54,.82,1.37,.82,2.48v5.55h-1.33v-5.45c0-.68-.18-1.22-.54-1.61-.36-.39-.85-.58-1.47-.58s-1.18,.21-1.61,.62c-.42,.42-.64,1.01-.64,1.77Z"/>
      <path class="cls-6" d="M454,418.12l-3.22,8.73h-1.38l-3.22-8.73h1.45l2.41,6.97h.09l2.41-6.97h1.45Z"/>
      <path class="cls-6" d="M455.7,416.67c-.26,0-.48-.09-.67-.27-.19-.18-.28-.39-.28-.64s.09-.46,.28-.64c.19-.18,.41-.27,.67-.27s.48,.09,.67,.27c.19,.18,.28,.39,.28,.64s-.09,.46-.28,.64c-.19,.18-.41,.27-.67,.27Zm-.67,10.19v-8.73h1.33v8.73h-1.33Z"/>
      <path class="cls-6" d="M458.08,426.85v-11.64h1.33v6.8h.17l3.81-3.89h1.66l-3.69,3.74,3.97,4.99h-1.72l-3.27-4.13-.94,.88v3.26h-1.33Z"/>
      <path class="cls-6" d="M469.81,418.12v1.14h-1.88v5.09c0,.45,.09,.79,.28,1s.48,.32,.89,.32c.19,0,.39-.02,.59-.06l.28,1.2c-.28,.1-.61,.16-1,.16-.7,0-1.27-.21-1.71-.62-.44-.42-.66-.96-.66-1.62v-5.45h-1.31v-1.14h1.31v-2.08h1.33v2.08h1.88Z"/>
      <path class="cls-6" d="M476.59,423.29v-5.17h1.33v8.73h-1.33v-1.48h-.09c-.21,.44-.53,.82-.96,1.13s-.98,.47-1.64,.46c-.82,0-1.49-.26-2.02-.81-.53-.54-.79-1.37-.79-2.49v-5.55h1.33v5.47c0,.63,.18,1.14,.54,1.52,.36,.38,.82,.57,1.38,.56,.33,0,.67-.08,1.02-.25,.35-.17,.64-.43,.88-.78s.36-.8,.36-1.34Z"/>
      <path class="cls-6" d="M485.81,420.09l-1.2,.33c-.11-.3-.31-.58-.59-.85-.28-.27-.71-.4-1.3-.4-.53,0-.97,.12-1.33,.37-.35,.25-.53,.56-.53,.93,0,.33,.12,.6,.36,.8,.24,.2,.62,.36,1.14,.48l1.3,.31c1.54,.37,2.31,1.16,2.31,2.36,0,.5-.14,.95-.43,1.34-.29,.4-.68,.71-1.2,.94s-1.1,.34-1.78,.34c-.89,0-1.63-.2-2.21-.59s-.95-.96-1.11-1.7l1.27-.31c.25,.94,.92,1.41,2.03,1.41,.62,0,1.12-.13,1.49-.4,.37-.27,.56-.59,.56-.96,0-.61-.43-1.03-1.3-1.23l-1.45-.34c-.8-.19-1.39-.49-1.77-.88-.38-.4-.56-.89-.56-1.49,0-.49,.14-.93,.42-1.31,.28-.38,.66-.68,1.14-.89,.48-.22,1.03-.32,1.64-.32,.87,0,1.55,.19,2.04,.57s.84,.88,1.05,1.5Z"/>
      <path class="cls-6" d="M494.91,427.01c-.75,0-1.42-.13-2.01-.38s-1.05-.61-1.39-1.07-.53-1-.55-1.61h1.42c.04,.56,.3,1.01,.78,1.33,.48,.32,1.05,.48,1.72,.48,.75,0,1.37-.19,1.85-.57,.48-.38,.73-.88,.73-1.49,0-.65-.24-1.17-.71-1.58s-1.16-.61-2.04-.61h-.94v-1.25h.94c.69,0,1.25-.18,1.68-.55,.43-.36,.65-.85,.65-1.47s-.19-1.06-.57-1.42c-.38-.36-.89-.54-1.54-.54-.4,0-.78,.07-1.13,.22-.35,.15-.64,.35-.87,.62-.22,.27-.34,.6-.36,.98h-1.36c.02-.61,.2-1.14,.55-1.6,.34-.46,.8-.82,1.36-1.07s1.18-.39,1.85-.39c.72,0,1.34,.14,1.85,.43s.91,.67,1.19,1.14c.28,.47,.41,.98,.41,1.53,0,.66-.17,1.22-.51,1.68-.34,.46-.81,.78-1.39,.96v.09c.73,.12,1.3,.43,1.71,.93,.41,.5,.62,1.12,.62,1.86,0,.63-.17,1.2-.51,1.7s-.81,.89-1.4,1.18-1.26,.43-2.01,.43Z"/>
      <path class="cls-6" d="M504.2,427.01c-1.29,0-2.28-.52-2.99-1.56-.71-1.04-1.06-2.51-1.06-4.41s.36-3.36,1.07-4.41c.71-1.05,1.71-1.57,2.98-1.57s2.27,.52,2.98,1.57c.71,1.05,1.07,2.52,1.07,4.41s-.35,3.36-1.06,4.41c-.71,1.04-1.7,1.56-2.99,1.56Zm0-1.23c.86,0,1.53-.42,2-1.25,.47-.83,.7-1.99,.7-3.49s-.23-2.67-.7-3.5c-.47-.83-1.14-1.25-2-1.25s-1.53,.42-2,1.25c-.47,.83-.7,2-.7,3.5s.23,2.66,.7,3.49c.47,.83,1.14,1.25,2,1.25Z"/>
    </g>
  </g>
  <g>
    <g>
      <path class="cls-5" d="M716.04,177.45s1.73-.42,2.17-1.16,.64-1.66,.64-1.66v-5.63s-.1-.2-1-.35v-5.12c-.01-.67-1.84-.78-2.81-.8v-.44s-3-.18-3-.18v-5.06s-114.34-6.08-114.34-6.08l-13.04,20.16v190.13l13.44,22.07,114.09-8.09v-4.28s3.05-.17,3.05-.17v-1.59s1.95-.24,1.95-.24c0,0,.65-.13,.65-.52v-4.44c.27-.08,.96-.36,.96-1.27v-4.98l-1.26-3.06s-.3-.56-2.32-.82l-.16-176.29,.98-.13Z"/>
      <g>
        <polygon class="cls-4" points="598.09 383.33 712.18 375.24 712.03 157.04 597.7 150.96 584.65 171.12 584.65 361.26 598.09 383.33"/>
        <line class="cls-4" x1="597.7" y1="150.96" x2="598.09" y2="383.33"/>
        <polygon class="cls-4" points="715.23 370.79 604.43 376.92 604.01 155.56 715.04 162.29 715.23 370.79"/>
        <path class="cls-4" d="M714.56,364.29l.05,4.98,2.58-.31s.65-.13,.65-.52v-5.1l-3.28,.74v.2Z"/>
        <path class="cls-4" d="M714.44,162.73s3.39-.11,3.41,.8v7.47l-3.35-.09-.06-8.17Z"/>
        <path class="cls-4" d="M714.48,353.8v3.19l-17.86,2.13v6.34h9.1l12.01-1.43s1.07-.17,1.07-1.3v-4.98l-1.26-3.06s-.37-.7-3.06-.9Z"/>
        <path class="cls-4" d="M714.5,174.63l.02,3.01,1.51-.2s1.73-.42,2.17-1.16,.64-1.66,.64-1.66v-5.63s-.15-.32-1.85-.44-9.98-.96-9.98-.96c0,0-1.85-.05-3.8,0s-6.25,.17-6.25,.17v5.66l8.62,.59,8.92,.62Z"/>
        <polyline class="cls-2" points="696.62 359.12 705.51 359.48 718.8 357.75"/>
        <line class="cls-2" x1="705.72" y1="365.46" x2="705.51" y2="359.48"/>
        <line class="cls-4" x1="705.96" y1="167.57" x2="705.96" y2="173.3"/>
        <polyline class="cls-2" points="696.96 173.42 705.96 173.3 718.85 174.63"/>
        <ellipse class="cls-4" cx="660.06" cy="257.3" rx="6.13" ry="6.45"/>
        <ellipse class="cls-4" cx="660.75" cy="257.3" rx="3.89" ry="4.38"/>
        <ellipse class="cls-4" cx="660.06" cy="274.89" rx="3.89" ry="4.38"/>
        <g>
          <path class="cls-4" d="M632.09,223.06l-5.34,.8s-1.95,1.35-.44,3.58,5.78-4.37,5.78-4.37Z"/>
          <g>
            <path class="cls-4" d="M611.78,262.8c-.82,0-1.48-.89-1.48-1.98s.66-1.98,1.48-1.98h2.59v3.96h-2.59Z"/>
            <path class="cls-4" d="M613.36,257s-.07,4.51,.19,5.98c.19,1.08,.83,3.09,2.85,3.09,1.46,0,1.46-1.79,1.53-2.52,.16-1.61-.05-6.55-.05-6.55h-4.52Z"/>
          </g>
          <path class="cls-4" d="M626.5,226.84l4.89-4.42s1.66-1.21,3.73-.44c2.08,.77-.89,3.7-1.8,4.5-1.12,.97-4.64,3.68-4.64,3.68l-2.17-3.31Z"/>
          <path class="cls-4" d="M630.53,229.08c-.67-1.28-1.66-2.77-3.51-3.31-12.67,11.95-13.33,14.03-13.9,31.82,1.64-.07,3.4,.07,5.04,0-.06-15.48,1.23-18.41,12.37-28.51Z"/>
          <path class="cls-4" d="M643.34,263.84l-18.46,.3c-.9,0-1.64,1.03-1.64,2.3s.73,2.3,1.64,2.3l18.72-.26c2.37-3.08-.26-4.63-.26-4.63Z"/>
          <path class="cls-4" d="M626.96,264.11s.56,2.22,0,4.63"/>
          <path class="cls-4" d="M641.48,263.87s1.41,1.56,.23,4.63"/>
        </g>
        <polygon class="cls-4" points="686.46 365.07 612.98 368.92 612.98 367.66 686.46 363.81 686.46 365.07"/>
        <polygon class="cls-4" points="697.23 298.83 696.19 298.83 696.96 182.24 697.8 182.24 697.23 298.83"/>
        <polygon class="cls-4" points="697.75 311.26 696.3 312.41 696.24 308.28 697.68 307.42 697.75 311.26"/>
        <polygon class="cls-4" points="698.58 327.7 695.69 329.83 695.58 322.09 698.36 320.05 698.58 327.7"/>
        <polygon class="cls-4" points="699.25 346.31 695.17 349.72 694.91 340.56 699 337.85 699.25 346.31"/>
      </g>
    </g>
    <g>
      <path class="cls-6" d="M616.85,415.21v11.64h-1.41v-11.64h1.41Z"/>
      <path class="cls-6" d="M620.07,421.6v5.25h-1.33v-8.73h1.28v1.38h.12c.2-.45,.51-.81,.93-1.08,.42-.27,.96-.41,1.62-.41,.88,0,1.59,.27,2.14,.81,.54,.54,.82,1.37,.82,2.48v5.55h-1.33v-5.45c0-.68-.18-1.22-.54-1.61-.36-.39-.85-.58-1.47-.58s-1.18,.21-1.61,.62c-.42,.42-.64,1.01-.64,1.77Z"/>
      <path class="cls-6" d="M634.18,418.12l-3.22,8.73h-1.38l-3.22-8.73h1.45l2.41,6.97h.09l2.41-6.97h1.45Z"/>
      <path class="cls-6" d="M635.89,416.67c-.26,0-.48-.09-.67-.27-.19-.18-.28-.39-.28-.64s.09-.46,.28-.64c.19-.18,.41-.27,.67-.27s.48,.09,.67,.27c.19,.18,.28,.39,.28,.64s-.09,.46-.28,.64c-.19,.18-.41,.27-.67,.27Zm-.67,10.19v-8.73h1.33v8.73h-1.33Z"/>
      <path class="cls-6" d="M638.26,426.85v-11.64h1.33v6.8h.17l3.81-3.89h1.66l-3.69,3.74,3.97,4.99h-1.72l-3.27-4.13-.94,.88v3.26h-1.33Z"/>
      <path class="cls-6" d="M650,418.12v1.14h-1.88v5.09c0,.45,.09,.79,.28,1s.48,.32,.89,.32c.19,0,.39-.02,.59-.06l.28,1.2c-.28,.1-.61,.16-1,.16-.7,0-1.27-.21-1.71-.62-.44-.42-.66-.96-.66-1.62v-5.45h-1.31v-1.14h1.31v-2.08h1.33v2.08h1.88Z"/>
      <path class="cls-6" d="M656.78,423.29v-5.17h1.33v8.73h-1.33v-1.48h-.09c-.21,.44-.53,.82-.96,1.13s-.98,.47-1.64,.46c-.82,0-1.49-.26-2.02-.81-.53-.54-.79-1.37-.79-2.49v-5.55h1.33v5.47c0,.63,.18,1.14,.54,1.52,.36,.38,.82,.57,1.38,.56,.33,0,.67-.08,1.02-.25,.35-.17,.64-.43,.88-.78s.36-.8,.36-1.34Z"/>
      <path class="cls-6" d="M666,420.09l-1.2,.33c-.11-.3-.31-.58-.59-.85-.28-.27-.71-.4-1.3-.4-.53,0-.97,.12-1.33,.37-.35,.25-.53,.56-.53,.93,0,.33,.12,.6,.36,.8,.24,.2,.62,.36,1.14,.48l1.3,.31c1.54,.37,2.31,1.16,2.31,2.36,0,.5-.14,.95-.43,1.34-.29,.4-.68,.71-1.2,.94s-1.1,.34-1.78,.34c-.89,0-1.63-.2-2.21-.59s-.95-.96-1.11-1.7l1.27-.31c.25,.94,.92,1.41,2.03,1.41,.62,0,1.12-.13,1.49-.4,.37-.27,.56-.59,.56-.96,0-.61-.43-1.03-1.3-1.23l-1.45-.34c-.8-.19-1.39-.49-1.77-.88-.38-.4-.56-.89-.56-1.49,0-.49,.14-.93,.42-1.31,.28-.38,.66-.68,1.14-.89,.48-.22,1.03-.32,1.64-.32,.87,0,1.55,.19,2.04,.57s.84,.88,1.05,1.5Z"/>
      <path class="cls-6" d="M670.89,424.46v-1.16l5.11-8.09h1.7v8h1.59v1.25h-1.59v2.39h-1.34v-2.39h-5.47Zm1.52-1.25h3.95v-6.2h-.09l-3.86,6.11v.09Z"/>
      <path class="cls-6" d="M684.46,427.01c-1.29,0-2.28-.52-2.99-1.56-.71-1.04-1.06-2.51-1.06-4.41s.36-3.36,1.07-4.41c.71-1.05,1.71-1.57,2.98-1.57s2.27,.52,2.98,1.57c.71,1.05,1.07,2.52,1.07,4.41s-.35,3.36-1.06,4.41c-.71,1.04-1.7,1.56-2.99,1.56Zm0-1.23c.86,0,1.53-.42,2-1.25,.47-.83,.7-1.99,.7-3.49s-.23-2.67-.7-3.5c-.47-.83-1.14-1.25-2-1.25s-1.53,.42-2,1.25c-.47,.83-.7,2-.7,3.5s.23,2.66,.7,3.49c.47,.83,1.14,1.25,2,1.25Z"/>
    </g>
  </g>
  <g>
    <g>
      <path class="cls-5" d="M915.81,354.69s-.37-.69-3.03-.89l-1.73-236.63,1.49-.19s1.73-.42,2.17-1.16,.64-1.66,.64-1.66v-5.63s-.1-.2-1-.35v-5.12c-.02-.91-3.41-.8-3.41-.8v-.88s-2.38-.13-2.38-.13l-.03-4.67-125.21-8.26-15.02,23.92v243.89l14.63,27.21,127.53-8.09-.03-4.75,2.48-.14v-1.08s2.56-.31,2.56-.31c0,0,.65-.13,.65-.52v-4.44c.27-.08,.96-.36,.96-1.27v-4.98l-1.26-3.06Z"/>
      <g>
        <polygon class="cls-4" points="782.92 383.33 910.45 375.24 908.53 96.56 783.32 88.31 768.3 112.23 768.3 356.12 782.92 383.33"/>
        <line class="cls-4" x1="783.32" y1="88.31" x2="782.92" y2="383.33"/>
        <polygon class="cls-4" points="912.9 370.35 789.36 377.47 789.36 94.44 910.93 101.37 912.9 370.35"/>
        <path class="cls-4" d="M912.83,364.29l.05,4.98,2.58-.31s.65-.13,.65-.52v-5.1l-3.28,.74v.2Z"/>
        <path class="cls-4" d="M910.93,102.25s3.39-.11,3.41,.8v7.47l-3.35-.09-.06-8.17Z"/>
        <path class="cls-4" d="M912.75,353.8v3.19l-17.86,2.13v6.34h9.1l12.01-1.43s1.07-.17,1.07-1.3v-4.98l-1.26-3.06s-.37-.7-3.06-.9Z"/>
        <path class="cls-4" d="M911,114.15l.02,3.01,1.51-.2s1.73-.42,2.17-1.16,.64-1.66,.64-1.66v-5.63s-.15-.32-1.85-.44-9.98-.96-9.98-.96c0,0-1.85-.05-3.8,0s-6.25,.17-6.25,.17v5.66l8.62,.59,8.92,.62Z"/>
        <polyline class="cls-2" points="894.89 359.12 903.78 359.48 917.07 357.75"/>
        <line class="cls-2" x1="903.99" y1="365.46" x2="903.78" y2="359.48"/>
        <line class="cls-4" x1="902.45" y1="107.09" x2="902.45" y2="112.82"/>
        <polyline class="cls-2" points="893.46 112.94 902.45 112.82 915.35 114.15"/>
        <path class="cls-4" d="M817.64,193.42l-5.34,.8s-1.95,1.35-.44,3.58c1.5,2.22,5.78-4.37,5.78-4.37Z"/>
        <ellipse class="cls-4" cx="844.63" cy="227" rx="6.13" ry="6.45"/>
        <ellipse class="cls-4" cx="845.32" cy="227" rx="3.89" ry="4.38"/>
        <g>
          <path class="cls-4" d="M797.33,233.15c-.82,0-1.48-.89-1.48-1.98s.66-1.98,1.48-1.98h2.59v3.96h-2.59Z"/>
          <path class="cls-4" d="M798.91,227.36s-.07,4.51,.19,5.98c.19,1.08,.83,3.09,2.85,3.09,1.46,0,1.46-1.79,1.53-2.52,.16-1.61-.05-6.55-.05-6.55h-4.52Z"/>
        </g>
        <path class="cls-4" d="M812.05,197.19l4.89-4.42s1.66-1.21,3.73-.44c2.08,.77-.89,3.7-1.8,4.5-1.12,.97-4.64,3.68-4.64,3.68l-2.17-3.31Z"/>
        <path class="cls-4" d="M816.08,199.44c-.67-1.28-1.66-2.77-3.51-3.31-12.67,11.95-13.33,14.03-13.9,31.82,1.64-.07,3.4,.07,5.04,0-.06-15.48,1.23-18.41,12.37-28.51Z"/>
        <path class="cls-4" d="M828.89,234.2l-18.46,.3c-.9,0-1.64,1.03-1.64,2.3s.73,2.3,1.64,2.3l18.72-.26c2.37-3.08-.26-4.63-.26-4.63Z"/>
        <path class="cls-4" d="M812.51,234.46s.56,2.22,0,4.63"/>
        <path class="cls-4" d="M827.03,234.23s1.41,1.56,.23,4.63"/>
        <polygon class="cls-4" points="883.1 364.7 798.46 370 798.46 368.74 883.1 363.44 883.1 364.7"/>
        <polygon class="cls-4" points="893.94 297.94 892.91 297.94 893.46 121.76 894.29 121.76 893.94 297.94"/>
        <polygon class="cls-4" points="894.41 309.78 892.97 310.93 892.91 306.8 894.34 305.94 894.41 309.78"/>
        <polygon class="cls-4" points="895.35 326.59 892.46 328.72 892.35 320.98 895.13 318.94 895.35 326.59"/>
        <polygon class="cls-4" points="896.03 345.2 891.95 348.61 891.69 339.45 895.79 336.74 896.03 345.2"/>
        <polygon class="cls-4" points="835 182.49 835 210.56 857.39 210.56 857.39 182.49 835.69 181.95 835 182.49"/>
        <line class="cls-4" x1="835.69" y1="181.95" x2="835.94" y2="210.56"/>
        <path class="cls-2" d="M835.94,202.75s4.15,1.08,6.18-1.39c2.04-2.47,9.11-.35,9.11-.35,0,0,1.5,3,6.15,1.98"/>
        <g>
          <path class="cls-4" d="M837.67,183.13s13.24-.64,17.05,.35c0,0-.3,19.76-7.66,21.25-7.36,1.48-9.39-21.59-9.39-21.59Z"/>
          <g>
            <polygon class="cls-4" points="851.57 190.47 841.19 190.47 841.19 184.84 851.53 184.84 851.57 190.47"/>
            <circle class="cls-4" cx="844.4" cy="193.37" r=".6"/>
            <circle class="cls-4" cx="846.79" cy="193.37" r=".6"/>
            <circle class="cls-4" cx="849.04" cy="193.37" r=".6"/>
            <circle class="cls-4" cx="844.4" cy="195.22" r=".6"/>
            <circle class="cls-4" cx="846.79" cy="195.22" r=".6"/>
            <circle class="cls-4" cx="849.04" cy="195.22" r=".6"/>
            <circle class="cls-4" cx="844.4" cy="197.2" r=".6"/>
            <circle class="cls-4" cx="846.79" cy="197.2" r=".6"/>
            <circle class="cls-4" cx="846.79" cy="199.17" r=".6"/>
            <path class="cls-4" d="M849.8,199.17s-.78,.44-1.02,.44-.44-.2-.44-.44,.2-.44,.44-.44,1.02,.44,1.02,.44Z"/>
            <path class="cls-4" d="M845.24,199.17c0,.24-.2,.44-.44,.44s-1.12-.55-1.12-.55c0,0,.88-.32,1.12-.32s.44,.2,.44,.44Z"/>
            <circle class="cls-4" cx="849.04" cy="197.2" r=".6"/>
            <rect class="cls-4" x="842.23" y="191.14" width="1.76" height=".61" rx=".24" ry=".24"/>
            <rect class="cls-4" x="844.62" y="191.14" width="1.76" height=".61" rx=".24" ry=".24"/>
            <rect class="cls-4" x="846.99" y="191.14" width="1.76" height=".61" rx=".24" ry=".24"/>
            <rect class="cls-4" x="849.25" y="191.14" width="1.76" height=".61" rx=".24" ry=".24"/>
          </g>
        </g>
      </g>
    </g>
    <g>
      <path class="cls-6" d="M808,415.21v11.64h-1.41v-11.64h1.41Z"/>
      <path class="cls-6" d="M811.21,421.6v5.25h-1.33v-8.73h1.28v1.38h.12c.2-.45,.51-.81,.93-1.08,.42-.27,.96-.41,1.62-.41,.88,0,1.59,.27,2.14,.81,.54,.54,.82,1.37,.82,2.48v5.55h-1.33v-5.45c0-.68-.18-1.22-.54-1.61-.36-.39-.85-.58-1.47-.58s-1.18,.21-1.61,.62c-.42,.42-.64,1.01-.64,1.77Z"/>
      <path class="cls-6" d="M825.32,418.12l-3.22,8.73h-1.38l-3.22-8.73h1.45l2.41,6.97h.09l2.41-6.97h1.45Z"/>
      <path class="cls-6" d="M827.03,416.67c-.26,0-.48-.09-.67-.27-.19-.18-.28-.39-.28-.64s.09-.46,.28-.64c.19-.18,.41-.27,.67-.27s.48,.09,.67,.27c.19,.18,.28,.39,.28,.64s-.09,.46-.28,.64c-.19,.18-.41,.27-.67,.27Zm-.67,10.19v-8.73h1.33v8.73h-1.33Z"/>
      <path class="cls-6" d="M829.4,426.85v-11.64h1.33v6.8h.17l3.81-3.89h1.66l-3.69,3.74,3.97,4.99h-1.72l-3.27-4.13-.94,.88v3.26h-1.33Z"/>
      <path class="cls-6" d="M841.14,418.12v1.14h-1.88v5.09c0,.45,.09,.79,.28,1s.48,.32,.89,.32c.19,0,.39-.02,.59-.06l.28,1.2c-.28,.1-.61,.16-1,.16-.7,0-1.27-.21-1.71-.62-.44-.42-.66-.96-.66-1.62v-5.45h-1.31v-1.14h1.31v-2.08h1.33v2.08h1.88Z"/>
      <path class="cls-6" d="M847.92,423.29v-5.17h1.33v8.73h-1.33v-1.48h-.09c-.21,.44-.53,.82-.96,1.13s-.98,.47-1.64,.46c-.82,0-1.49-.26-2.02-.81-.53-.54-.79-1.37-.79-2.49v-5.55h1.33v5.47c0,.63,.18,1.14,.54,1.52,.36,.38,.82,.57,1.38,.56,.33,0,.67-.08,1.02-.25,.35-.17,.64-.43,.88-.78s.36-.8,.36-1.34Z"/>
      <path class="cls-6" d="M857.14,420.09l-1.2,.33c-.11-.3-.31-.58-.59-.85-.28-.27-.71-.4-1.3-.4-.53,0-.97,.12-1.33,.37-.35,.25-.53,.56-.53,.93,0,.33,.12,.6,.36,.8,.24,.2,.62,.36,1.14,.48l1.3,.31c1.54,.37,2.31,1.16,2.31,2.36,0,.5-.14,.95-.43,1.34-.29,.4-.68,.71-1.2,.94s-1.1,.34-1.78,.34c-.89,0-1.63-.2-2.21-.59s-.95-.96-1.11-1.7l1.27-.31c.25,.94,.92,1.41,2.03,1.41,.62,0,1.12-.13,1.49-.4,.37-.27,.56-.59,.56-.96,0-.61-.43-1.03-1.3-1.23l-1.45-.34c-.8-.19-1.39-.49-1.77-.88-.38-.4-.56-.89-.56-1.49,0-.49,.14-.93,.42-1.31,.28-.38,.66-.68,1.14-.89,.48-.22,1.03-.32,1.64-.32,.87,0,1.55,.19,2.04,.57s.84,.88,1.05,1.5Z"/>
      <path class="cls-6" d="M866.09,427.01c-.47,0-.95-.09-1.43-.26s-.92-.47-1.31-.88-.71-.98-.95-1.69c-.24-.71-.36-1.61-.36-2.68,0-2.06,.38-3.64,1.14-4.76s1.79-1.68,3.1-1.68c.65,0,1.23,.13,1.74,.39,.51,.26,.92,.62,1.25,1.08s.53,.99,.62,1.59h-1.38c-.13-.52-.38-.95-.75-1.3s-.87-.52-1.48-.52c-.9,0-1.61,.39-2.13,1.18-.52,.78-.78,1.89-.78,3.31h.09c.32-.48,.72-.86,1.22-1.14s1.04-.41,1.64-.41c.67,0,1.28,.17,1.83,.5,.55,.33,1,.79,1.33,1.37,.33,.58,.5,1.25,.5,2s-.16,1.37-.48,1.96c-.32,.59-.77,1.06-1.36,1.41s-1.27,.53-2.05,.53Zm0-1.25c.48,0,.91-.12,1.29-.36,.38-.24,.68-.56,.91-.96,.22-.4,.34-.85,.34-1.34s-.11-.92-.32-1.32c-.22-.39-.51-.71-.88-.94s-.8-.35-1.28-.35-.91,.12-1.3,.37c-.39,.25-.7,.57-.92,.96s-.34,.83-.34,1.29,.11,.9,.33,1.3c.22,.4,.52,.73,.89,.97,.38,.25,.81,.37,1.29,.37Z"/>
      <path class="cls-6" d="M875.18,427.01c-1.29,0-2.28-.52-2.99-1.56-.71-1.04-1.06-2.51-1.06-4.41s.36-3.36,1.07-4.41c.71-1.05,1.71-1.57,2.98-1.57s2.27,.52,2.98,1.57c.71,1.05,1.07,2.52,1.07,4.41s-.35,3.36-1.06,4.41c-.71,1.04-1.7,1.56-2.99,1.56Zm0-1.23c.86,0,1.53-.42,2-1.25,.47-.83,.7-1.99,.7-3.49s-.23-2.67-.7-3.5c-.47-.83-1.14-1.25-2-1.25s-1.53,.42-2,1.25c-.47,.83-.7,2-.7,3.5s.23,2.66,.7,3.49c.47,.83,1.14,1.25,2,1.25Z"/>
    </g>
  </g>
  <g>
    <g>
      <path class="cls-3" d="M1210.38,333.44s-.37-.69-3.03-.89l-1.73-236.63,1.49-.19s1.73-.42,2.17-1.16,.64-1.66,.64-1.66v-5.63s-.1-.2-1-.35v-5.12c-.02-.91-3.41-.8-3.41-.8l.04,5.6h0l-.05-6.48-2.37-.22-.03-4.58-215.61-21.61-7.34,2.48-12.95,26.29-.69,263.06,10.81,29.52v1.56s.1,.45,.85,.76l1.02,2.78,8.3,3.19,217.53-29.35-.03-4.56,2.48-.33v-1.08s2.56-.31,2.56-.31c0,0,.65-.13,.65-.52v-4.44c.27-.08,.96-.36,.96-1.27v-4.98l-1.26-3.06Z"/>
      <g>
        <polygon class="cls-4" points="1203.09 75.31 987.49 53.71 980.15 56.19 967.21 82.48 966.51 345.54 979.19 380.16 987.49 383.34 1205.02 353.99 1203.09 75.31"/>
        <line class="cls-4" x1="980.15" y1="56.19" x2="979.19" y2="380.16"/>
        <line class="cls-4" x1="987.49" y1="53.71" x2="987.49" y2="383.34"/>
        <polygon class="cls-4" points="1207.47 349.1 1103.32 363 1103.41 70.52 1205.5 80.12 1207.47 349.1"/>
        <polygon class="cls-4" points="989.02 59.27 986.87 60.94 987.12 376.57 988.22 378.14 1103.3 363.1 1103.38 70.62 989.02 59.27"/>
        <line class="cls-4" x1="989.02" y1="59.27" x2="988.22" y2="378.14"/>
        <path class="cls-4" d="M977.32,365.26v11.36s.26,1.19,3.17,1.04l6.18-.89v-8.3l-9.35-3.21"/>
        <path class="cls-4" d="M1207.4,343.04l.05,4.98,2.58-.31s.65-.13,.65-.52v-5.1l-3.28,.74v.2Z"/>
        <path class="cls-4" d="M1205.5,81s3.39-.11,3.41,.8v7.47l-3.35-.09-.06-8.17Z"/>
        <path class="cls-4" d="M986.49,60.23v8.41l-7.56,3.22v-11.99s.25-.68,2.56-.28c1.02,.18,5,.63,5,.63Z"/>
        <line class="cls-4" x1="981.49" y1="59.6" x2="981.49" y2="69.87"/>
        <path class="cls-4" d="M1012.91,359.44l-.67-.19-1.02-.11-22.88,2.79-4.56-2.38h0c-.65-.38-1.7-.63-2.9-.63-1.96,0-3.56,.67-3.56,1.51v6.67c0,.52,.27,.69,.27,.69l6.84,2.65c2.21,.93,3.44,.54,3.44,.54l13.43-1.78,2.54-.31,9.17-3.04-.11-6.39Z"/>
        <path class="cls-4" d="M1207.32,332.55v3.19l-17.86,2.13v6.34h9.1l12.01-1.43s1.07-.17,1.07-1.3v-4.98l-1.26-3.06s-.37-.7-3.06-.9Z"/>
        <path class="cls-4" d="M1205.56,92.91l.02,3.01,1.51-.2s1.73-.42,2.17-1.16,.64-1.66,.64-1.66v-5.63s-.15-.32-1.85-.44-9.98-.96-9.98-.96c0,0-1.85-.05-3.8,0s-6.25,.17-6.25,.17v5.66l8.62,.59,8.92,.62Z"/>
        <path class="cls-4" d="M1013.36,76.85l-3.01,.1-21.99-1.53s-4.56,1.53-6.13,1.88c0,0-3.66-.15-4.35-.94v-6.28s.1-.69,2.03-1.09l5.58-1.68s.74-.4,4.45-.2l12.7,1.14s1.24,.05,2.96,.35l7.76,1.73v6.52Z"/>
        <path class="cls-2" d="M977.32,360.42l9.13,4.17s.67,.3,2.67,0,14.82-2.15,14.82-2.15l8.97-3"/>
        <line class="cls-2" x1="987.38" y1="364.64" x2="987.38" y2="371.05"/>
        <line class="cls-2" x1="1003.94" y1="362.44" x2="1003.85" y2="368.87"/>
        <line class="cls-4" x1="980.5" y1="377.66" x2="980.5" y2="368.9"/>
        <polyline class="cls-2" points="1189.46 337.87 1198.35 338.23 1211.64 336.5"/>
        <line class="cls-2" x1="1198.55" y1="344.21" x2="1198.35" y2="338.23"/>
        <line class="cls-4" x1="1197.02" y1="85.84" x2="1197.02" y2="91.57"/>
        <polyline class="cls-2" points="1188.02 91.69 1197.02 91.57 1209.91 92.91"/>
        <line class="cls-4" x1="988.35" y1="67.06" x2="988.35" y2="75.41"/>
        <line class="cls-4" x1="1003.68" y1="68.33" x2="1003.68" y2="76.7"/>
        <path class="cls-2" d="M977.88,76.35s-.1-1.03,3.83-1.93c1.57-.36,2.32-.82,6.35-1.11l15.62,1.52,9.68,2.01"/>
        <path class="cls-4" d="M1131.78,172.17l-5.34,.8s-1.95,1.35-.44,3.58c1.5,2.22,5.78-4.37,5.78-4.37Z"/>
        <ellipse class="cls-4" cx="1158.76" cy="205.75" rx="6.13" ry="6.45"/>
        <ellipse class="cls-4" cx="1156.64" cy="223.99" rx="3.89" ry="4.38"/>
        <ellipse class="cls-4" cx="1159.45" cy="205.75" rx="3.89" ry="4.38"/>
        <g>
          <path class="cls-4" d="M1111.46,211.9c-.82,0-1.48-.89-1.48-1.98s.66-1.98,1.48-1.98h2.59v3.96h-2.59Z"/>
          <path class="cls-4" d="M1113.04,206.11s-.07,4.51,.19,5.98c.19,1.08,.83,3.09,2.85,3.09,1.46,0,1.46-1.79,1.53-2.52,.16-1.61-.05-6.55-.05-6.55h-4.52Z"/>
        </g>
        <path class="cls-4" d="M1126.19,175.94l4.89-4.42s1.66-1.21,3.73-.44c2.08,.77-.89,3.7-1.8,4.5-1.12,.97-4.64,3.68-4.64,3.68l-2.17-3.31Z"/>
        <path class="cls-4" d="M1130.22,178.19c-.67-1.28-1.66-2.77-3.51-3.31-12.67,11.95-13.33,14.03-13.9,31.82,1.64-.07,3.4,.07,5.04,0-.06-15.48,1.23-18.41,12.37-28.51Z"/>
        <path class="cls-4" d="M1086.73,218.66l-21.32,.3v-4.74s15.35-.3,21.32-.3c1.82,0,5.41,2.52,0,4.74Z"/>
        <ellipse class="cls-4" cx="1065.41" cy="216.58" rx=".62" ry="2.37"/>
        <path class="cls-4" d="M1085.62,213.74l-16.35,.21c.15,.72,.24,1.63,.24,2.62s-.09,1.87-.23,2.58l16.34-.27s.42-.75,.42-2.44-.42-2.71-.42-2.71Z"/>
        <path class="cls-4" d="M1143.02,212.95l-18.46,.3c-.9,0-1.64,1.03-1.64,2.3s.73,2.3,1.64,2.3l18.72-.26c2.37-3.08-.26-4.63-.26-4.63Z"/>
        <path class="cls-4" d="M1126.64,213.21s.56,2.22,0,4.63"/>
        <path class="cls-4" d="M1141.17,212.98s1.41,1.56,.23,4.63"/>
        <polygon class="cls-4" points="1094.92 356.5 1022.4 365.36 1022.4 364.1 1094.92 355.24 1094.92 356.5"/>
        <polygon class="cls-4" points="1182.34 345.67 1112.43 354.23 1112.43 352.97 1182.34 344.41 1182.34 345.67"/>
        <polygon class="cls-4" points="1192.3 277.13 1191.27 277.13 1190.36 100.51 1191.19 100.51 1192.3 277.13"/>
        <polygon class="cls-4" points="1192.84 289.37 1191.39 290.52 1191.33 286.39 1192.77 285.53 1192.84 289.37"/>
        <polygon class="cls-4" points="1193.74 306.5 1190.85 308.63 1190.74 300.9 1193.52 298.85 1193.74 306.5"/>
        <polygon class="cls-4" points="1194.48 325.9 1190.4 329.31 1190.12 319.47 1194.36 316.35 1194.48 325.9"/>
      </g>
    </g>
    <g>
      <path class="cls-6" d="M1051.62,415.21v11.64h-1.41v-11.64h1.41Z"/>
      <path class="cls-6" d="M1054.84,421.6v5.25h-1.33v-8.73h1.28v1.38h.12c.2-.45,.51-.81,.93-1.08,.42-.27,.96-.41,1.62-.41,.88,0,1.59,.27,2.14,.81,.54,.54,.82,1.37,.82,2.48v5.55h-1.33v-5.45c0-.68-.18-1.22-.54-1.61-.36-.39-.85-.58-1.47-.58s-1.18,.21-1.61,.62c-.42,.42-.64,1.01-.64,1.77Z"/>
      <path class="cls-6" d="M1068.95,418.12l-3.22,8.73h-1.38l-3.22-8.73h1.45l2.41,6.97h.09l2.41-6.97h1.45Z"/>
      <path class="cls-6" d="M1070.65,416.67c-.26,0-.48-.09-.67-.27-.19-.18-.28-.39-.28-.64s.09-.46,.28-.64c.19-.18,.41-.27,.67-.27s.48,.09,.67,.27c.19,.18,.28,.39,.28,.64s-.09,.46-.28,.64c-.19,.18-.41,.27-.67,.27Zm-.67,10.19v-8.73h1.33v8.73h-1.33Z"/>
      <path class="cls-6" d="M1073.03,426.85v-11.64h1.33v6.8h.17l3.81-3.89h1.66l-3.69,3.74,3.97,4.99h-1.72l-3.27-4.13-.94,.88v3.26h-1.33Z"/>
      <path class="cls-6" d="M1084.76,418.12v1.14h-1.88v5.09c0,.45,.09,.79,.28,1s.48,.32,.89,.32c.19,0,.39-.02,.59-.06l.28,1.2c-.28,.1-.61,.16-1,.16-.7,0-1.27-.21-1.71-.62-.44-.42-.66-.96-.66-1.62v-5.45h-1.31v-1.14h1.31v-2.08h1.33v2.08h1.88Z"/>
      <path class="cls-6" d="M1091.54,423.29v-5.17h1.33v8.73h-1.33v-1.48h-.09c-.21,.44-.53,.82-.96,1.13s-.98,.47-1.64,.46c-.82,0-1.49-.26-2.02-.81-.53-.54-.79-1.37-.79-2.49v-5.55h1.33v5.47c0,.63,.18,1.14,.54,1.52,.36,.38,.82,.57,1.38,.56,.33,0,.67-.08,1.02-.25,.35-.17,.64-.43,.88-.78s.36-.8,.36-1.34Z"/>
      <path class="cls-6" d="M1100.76,420.09l-1.2,.33c-.11-.3-.31-.58-.59-.85-.28-.27-.71-.4-1.3-.4-.53,0-.97,.12-1.33,.37-.35,.25-.53,.56-.53,.93,0,.33,.12,.6,.36,.8,.24,.2,.62,.36,1.14,.48l1.3,.31c1.54,.37,2.31,1.16,2.31,2.36,0,.5-.14,.95-.43,1.34-.29,.4-.68,.71-1.2,.94s-1.1,.34-1.78,.34c-.89,0-1.63-.2-2.21-.59s-.95-.96-1.11-1.7l1.27-.31c.25,.94,.92,1.41,2.03,1.41,.62,0,1.12-.13,1.49-.4,.37-.27,.56-.59,.56-.96,0-.61-.43-1.03-1.3-1.23l-1.45-.34c-.8-.19-1.39-.49-1.77-.88-.38-.4-.56-.89-.56-1.49,0-.49,.14-.93,.42-1.31,.28-.38,.66-.68,1.14-.89,.48-.22,1.03-.32,1.64-.32,.87,0,1.55,.19,2.04,.57s.84,.88,1.05,1.5Z"/>
      <path class="cls-6" d="M1109.75,415.21v11.64h-1.38v-10.16h-.08l-2.83,1.89v-1.44l2.91-1.94h1.38Z"/>
      <path class="cls-6" d="M1111.61,426.85v-1.02l3.84-4.22c.45-.49,.82-.92,1.11-1.28,.29-.36,.5-.71,.65-1.03,.14-.32,.21-.66,.21-1.02,0-.62-.21-1.11-.64-1.46-.42-.36-.95-.54-1.58-.54-.68,0-1.21,.2-1.61,.6-.4,.4-.59,.94-.59,1.6h-1.34c0-.68,.16-1.28,.47-1.8s.75-.92,1.29-1.21,1.16-.43,1.83-.43,1.29,.14,1.81,.43,.94,.68,1.24,1.16c.3,.49,.45,1.03,.45,1.64,0,.43-.08,.84-.23,1.25-.15,.4-.42,.86-.8,1.36s-.9,1.11-1.57,1.82l-2.61,2.8v.09h5.41v1.25h-7.34Z"/>
      <path class="cls-6" d="M1124.34,427.01c-1.29,0-2.28-.52-2.99-1.56-.71-1.04-1.06-2.51-1.06-4.41s.36-3.36,1.07-4.41c.71-1.05,1.71-1.57,2.98-1.57s2.27,.52,2.98,1.57c.71,1.05,1.07,2.52,1.07,4.41s-.35,3.36-1.06,4.41c-.71,1.04-1.7,1.56-2.99,1.56Zm0-1.23c.86,0,1.53-.42,2-1.25,.47-.83,.7-1.99,.7-3.49s-.23-2.67-.7-3.5c-.47-.83-1.14-1.25-2-1.25s-1.53,.42-2,1.25c-.47,.83-.7,2-.7,3.5s.23,2.66,.7,3.49c.47,.83,1.14,1.25,2,1.25Z"/>
    </g>
  </g>
</svg>